<?xml version="1.0" encoding="UTF-8"?>
<svg xmlns="http://www.w3.org/2000/svg"
     viewBox="0 0 240 240"
     role="img"
     aria-label="Mike Ross — photographic-memory associate">
  <title>Mike Ross — associate</title>
  <desc>Pop-art portrait: younger man with light side-parted hair, loose tie, mid-blue shirt, holding a stack of articles. Cobalt and sky-blue ray-burst.</desc>

  <defs>
    <style>
      .ink   { fill: none; stroke: #0E0F12; stroke-width: 3; stroke-linejoin: round; stroke-linecap: round; }
      .ink-2 { fill: none; stroke: #0E0F12; stroke-width: 2; stroke-linejoin: round; stroke-linecap: round; }
      .ink-thick { fill: none; stroke: #0E0F12; stroke-width: 4; stroke-linejoin: round; stroke-linecap: round; }
      .skin  { fill: #F4D2B0; }
      .skin-shade { fill: #D9A574; }
      .hair  { fill: #C58A3A; }
      .hair-hi { fill: #E8B964; }
      .suit  { fill: #1B3A6B; }
      .suit-shade { fill: #102648; }
      .shirt { fill: #6CB4EE; }
      .shirt-shade { fill: #4490C9; }
      .tie   { fill: #1F3559; }
      .blush { fill: #E8341E; opacity: 0.45; }
    </style>

    <pattern id="mk-halftone" x="0" y="0" width="6" height="6" patternUnits="userSpaceOnUse">
      <circle cx="3" cy="3" r="1.1" fill="#0E0F12" opacity="0.85"/>
    </pattern>

    <clipPath id="mk-circle">
      <circle cx="120" cy="120" r="116"/>
    </clipPath>
  </defs>

  <g clip-path="url(#mk-circle)">
    <rect x="0" y="0" width="240" height="240" fill="#D6ECFF"/>
    <g transform="translate(120 120)">
      <polygon points="0,0 -260,-90 -260,-30"  fill="#22A4D4"/>
      <polygon points="0,0 -260,-30 -260,30"   fill="#6CB4EE"/>
      <polygon points="0,0 -260,30  -260,90"   fill="#1B3A6B"/>
      <polygon points="0,0 -260,90  -90,260"   fill="#22A4D4"/>
      <polygon points="0,0  90,260  260,90"    fill="#1B3A6B"/>
      <polygon points="0,0  260,90  260,30"    fill="#6CB4EE"/>
      <polygon points="0,0  260,30  260,-30"   fill="#F2C531"/>
      <polygon points="0,0  260,-30 260,-90"   fill="#22A4D4"/>
      <polygon points="0,0  260,-90 90,-260"   fill="#6CB4EE"/>
      <polygon points="0,0  90,-260 -90,-260"  fill="#1B3A6B"/>
      <polygon points="0,0 -90,-260 -260,-90"  fill="#6CB4EE"/>
    </g>

    <circle cx="120" cy="118" r="84" fill="#FBE9C5" opacity="0.75"/>
    <rect x="0" y="0" width="240" height="240" fill="url(#mk-halftone)" opacity="0.16"/>

    <g transform="translate(178 168)">
      <rect x="0"   y="0"  width="40" height="10" fill="#A03A2C" stroke="#0E0F12" stroke-width="2"/>
      <rect x="-2"  y="10" width="44" height="10" fill="#F2C531" stroke="#0E0F12" stroke-width="2"/>
      <rect x="2"   y="20" width="40" height="10" fill="#1F8A4C" stroke="#0E0F12" stroke-width="2"/>
      <text x="20" y="8"  font-family="Impact, sans-serif" font-size="7" fill="#0E0F12" text-anchor="middle">ART. 13</text>
      <text x="20" y="18" font-family="Impact, sans-serif" font-size="7" fill="#0E0F12" text-anchor="middle">ART. 26</text>
      <text x="22" y="28" font-family="Impact, sans-serif" font-size="7" fill="#0E0F12" text-anchor="middle">ART. 27</text>
    </g>
  </g>

  <circle cx="120" cy="120" r="116" fill="none" stroke="#0E0F12" stroke-width="6"/>

  <g>
    <path class="suit" d="M 30 240 L 30 200 C 38 178, 62 166, 80 162 L 100 158 L 140 158 L 160 162 C 178 166, 202 178, 210 200 L 210 240 Z"/>
    <path class="suit-shade" d="M 30 240 L 30 200 C 38 178, 56 168, 70 166 L 70 240 Z"/>

    <path class="shirt" d="M 92 162 L 120 198 L 148 162 L 144 240 L 96 240 Z"/>
    <path class="shirt-shade" d="M 96 184 L 120 198 L 144 184 L 142 220 L 98 220 Z"/>
    <path class="ink-2" d="M 92 162 L 120 198 L 148 162"/>

    <g transform="rotate(-8 120 220)">
      <path class="tie" d="M 113 178 L 127 178 L 130 192 L 124 240 L 116 240 L 110 192 Z"/>
      <path class="ink-2" d="M 113 178 L 127 178 L 130 192 L 124 240"/>
      <path class="ink-2" d="M 113 178 L 110 192 L 116 240"/>
    </g>

    <path class="ink-thick" d="M 92 162 L 80 176"/>
    <path class="ink-thick" d="M 148 162 L 160 176"/>

    <path class="skin" d="M 108 142 L 132 142 L 134 162 L 106 162 Z"/>
    <path class="skin-shade" d="M 108 154 L 132 154 L 132 162 L 108 162 Z"/>
    <path class="ink-2" d="M 108 142 L 106 162"/>
    <path class="ink-2" d="M 132 142 L 134 162"/>

    <path class="skin" d="M 88 96 C 88 74, 104 60, 120 60 C 136 60, 152 74, 152 96 L 152 124 C 152 140, 138 152, 120 152 C 102 152, 88 140, 88 124 Z"/>

    <path class="hair" d="M 80 88 C 78 60, 100 46, 122 46 C 146 46, 160 60, 160 86 L 158 96 C 152 80, 134 72, 118 78 C 106 82, 96 92, 92 102 L 86 100 C 82 98, 80 94, 80 88 Z"/>
    <path class="hair-hi" d="M 102 60 C 120 54, 142 56, 154 70 C 138 64, 122 66, 110 72 Z"/>
    <path class="ink-thick" d="M 100 64 C 122 78, 142 78, 156 70"/>
    <path class="ink-2" d="M 92 88 C 102 78, 116 76, 130 76"/>

    <path class="skin" d="M 86 104 C 82 106, 82 114, 86 118 L 90 116 Z"/>
    <path class="ink-2" d="M 86 104 C 82 106, 82 114, 86 118"/>

    <path class="ink-thick" d="M 98 102 C 104 100, 112 100, 116 102"/>
    <path class="ink-thick" d="M 124 102 C 128 100, 136 100, 142 102"/>

    <ellipse cx="106" cy="112" rx="4" ry="3" fill="#FBFAF4" stroke="#0E0F12" stroke-width="1.5"/>
    <ellipse cx="134" cy="112" rx="4" ry="3" fill="#FBFAF4" stroke="#0E0F12" stroke-width="1.5"/>
    <circle cx="106" cy="112" r="1.6" fill="#0E0F12"/>
    <circle cx="134" cy="112" r="1.6" fill="#0E0F12"/>

    <path class="ink-2" d="M 120 114 L 117 126 L 123 128"/>

    <path class="ink-thick" d="M 108 136 C 118 142, 128 142, 134 136"/>
    <path class="ink-2" d="M 110 138 L 132 138"/>

    <ellipse class="blush" cx="98"  cy="128" rx="6" ry="3"/>
    <ellipse class="blush" cx="142" cy="128" rx="6" ry="3"/>

    <path class="ink-thick" d="M 88 96 C 88 74, 104 60, 120 60 C 136 60, 152 74, 152 96 L 152 124 C 152 140, 138 152, 120 152 C 102 152, 88 140, 88 124 Z"/>
    <path class="ink-thick" d="M 80 88 C 78 60, 100 46, 122 46 C 146 46, 160 60, 160 86"/>

    <path class="ink-thick" d="M 30 240 C 70 222, 170 222, 210 240"/>
  </g>

  <g transform="translate(40 200)">
    <path d="M 0 -8 L 2 -2 L 8 0 L 2 2 L 0 8 L -2 2 L -8 0 L -2 -2 Z"
          fill="#F2C531" stroke="#0E0F12" stroke-width="2"/>
  </g>
</svg>
